<svg xmlns="http://www.w3.org/2000/svg" viewBox="0 0 150 40" fill="none">
  <path d="M20 10C15.0294 10 11 14.0294 11 19C11 23.9706 15.0294 28 20 28C24.9706 28 29 23.9706 29 19C29 14.0294 24.9706 10 20 10Z" fill="#3B82F6"/>
  <path d="M15 19C15 16.7909 16.7909 15 19 15C21.2091 15 23 16.7909 23 19C23 21.2091 21.2091 23 19 23C16.7909 23 15 21.2091 15 19Z" fill="#93C5FD"/>
  <path d="M25 15C25 13.8954 25.8954 13 27 13C28.1046 13 29 13.8954 29 15C29 16.1046 28.1046 17 27 17C25.8954 17 25 16.1046 25 15Z" fill="#93C5FD"/>
  <path d="M40.9688 15.5H44.7188V27H47.7188V15.5H51.4688V13H40.9688V15.5Z" fill="#3B82F6"/>
  <path d="M53.0312 13V27H56.0312V21.5H61.5312V19H56.0312V15.5H62.0312V13H53.0312Z" fill="#3B82F6"/>
  <path d="M64.0938 13V27H73.0938V24.5H67.  fill="#3B82F6"/>
  <path d="M64.0938 13V27H73.0938V24.5H67.0938V21H72.5938V18.5H67.0938V15.5H73.0938V13H64.0938Z" fill="#3B82F6"/>
  <path d="M75.1562 13V27H78.1562V21.5H79.6562L82.6562 27H86.1562L82.6562 20.5C84.4896 19.8333 85.6562 18.5 85.6562 16.5C85.6562 14.1667 83.8229 13 81.1562 13H75.1562ZM78.1562 15.5H80.6562C81.9896 15.5 82.6562 15.8333 82.6562 16.5C82.6562 17.1667 81.9896 17.5 80.6562 17.5H78.1562V15.5Z" fill="#3B82F6"/>
  <path d="M87.7188 13V27H90.7188V21.5H96.2188V19H90.7188V15.5H96.7188V13H87.7188Z" fill="#3B82F6"/>
  <path d="M98.7812 13V27H101.781V21.5H103.281L106.281 27H109.781L106.281 20.5C108.115 19.8333 109.281 18.5 109.281 16.5C109.281 14.1667 107.448 13 104.781 13H98.7812ZM101.781 15.5H104.281C105.615 15.5 106.281 15.8333 106.281 16.5C106.281 17.1667 105.615 17.5 104.281 17.5H101.781V15.5Z" fill="#3B82F6"/>
  <path d="M111.344 13V27H114.344V15.5H119.344V13H111.344Z" fill="#3B82F6"/>
</svg>

